<?xml version="1.0" encoding="UTF-8"?>
<svg version="1.1" xmlns="http://www.w3.org/2000/svg" width="1200" height="1200">
<path d="M0 0 C396 0 792 0 1200 0 C1200 396 1200 792 1200 1200 C804 1200 408 1200 0 1200 C0 804 0 408 0 0 Z " fill="#061044" transform="translate(0,0)"/>
<path d="M0 0 C4.77997596 2.41885257 9.38463971 5.07996105 13.984375 7.82421875 C16.14805049 9.10091653 18.31212666 10.37693546 20.4765625 11.65234375 C21.59256836 12.31169922 22.70857422 12.97105469 23.85839844 13.65039062 C29.2556383 16.82597231 34.682015 19.95048435 40.109375 23.07421875 C42.29428876 24.33330223 44.47918449 25.59241698 46.6640625 26.8515625 C47.74913086 27.47659668 48.83419922 28.10163086 49.95214844 28.74560547 C55.38097442 31.87352023 60.80756781 35.00530323 66.234375 38.13671875 C68.40103083 39.38673754 70.5676975 40.63673753 72.734375 41.88671875 C85.734375 49.38671875 85.734375 49.38671875 88.9855957 51.26245117 C91.14816083 52.51006615 93.31075839 53.75762491 95.47338867 55.00512695 C100.95307871 58.16615324 106.43216858 61.32821184 111.91015625 64.4921875 C113.57788086 65.45511719 113.57788086 65.45511719 115.27929688 66.4375 C117.34201631 67.62852629 119.40454247 68.81988744 121.46679688 70.01171875 C131.70322908 75.92127152 141.97152739 81.7722344 152.234375 87.63671875 C152.234375 146.70671875 152.234375 205.77671875 152.234375 266.63671875 C146.294375 269.93671875 140.354375 273.23671875 134.234375 276.63671875 C130.39106154 278.85155132 126.55652786 281.07400811 122.734375 283.32421875 C120.68000299 284.52788238 118.62530377 285.73098768 116.5703125 286.93359375 C115.5297168 287.54267578 114.48912109 288.15175781 113.41699219 288.77929688 C108.0754641 291.89669068 102.71789126 294.98614417 97.359375 298.07421875 C96.27978516 298.69643311 95.20019531 299.31864746 94.08789062 299.9597168 C91.8975498 301.22183392 89.70711998 302.4837966 87.51660156 303.74560547 C82.08777558 306.87352023 76.66118219 310.00530323 71.234375 313.13671875 C69.06771917 314.38673754 66.9010525 315.63673753 64.734375 316.88671875 C63.661875 317.50546875 62.589375 318.12421875 61.484375 318.76171875 C58.234375 320.63671875 54.984375 322.51171875 51.734375 324.38671875 C50.66034424 325.00635498 49.58631348 325.62599121 48.47973633 326.2644043 C46.32854276 327.50547129 44.17733845 328.74651968 42.02612305 329.98754883 C36.97474501 332.90170219 31.9234719 335.81603693 26.87258911 338.73104858 C25.08370582 339.76345353 23.29478783 340.79579831 21.50585938 341.828125 C19.26099864 343.12357823 17.0162031 344.41914445 14.77148438 345.71484375 C12.78657134 346.86022794 10.79866451 348.00044727 8.80712891 349.13427734 C7.23229062 350.05395421 5.6761768 351.00801965 4.15771484 352.01806641 C1.38476166 353.83310409 -0.18978324 354.71235898 -3.53125 354.2734375 C-8.31122596 351.85458493 -12.91588971 349.19347645 -17.515625 346.44921875 C-19.67930049 345.17252097 -21.84337666 343.89650204 -24.0078125 342.62109375 C-25.12381836 341.96173828 -26.23982422 341.30238281 -27.38964844 340.62304688 C-32.7868883 337.44746519 -38.213265 334.32295315 -43.640625 331.19921875 C-45.82553876 329.94013527 -48.01043449 328.68102052 -50.1953125 327.421875 C-51.28038086 326.79684082 -52.36544922 326.17180664 -53.48339844 325.52783203 C-58.91222442 322.39991727 -64.33881781 319.26813427 -69.765625 316.13671875 C-71.93228083 314.88669996 -74.0989475 313.63669997 -76.265625 312.38671875 C-89.265625 304.88671875 -89.265625 304.88671875 -92.5168457 303.01098633 C-94.67941083 301.76337135 -96.84200839 300.51581259 -99.00463867 299.26831055 C-104.48432871 296.10728426 -109.96341858 292.94522566 -115.44140625 289.78125 C-116.55322266 289.13929688 -117.66503906 288.49734375 -118.81054688 287.8359375 C-120.87326631 286.64491121 -122.93579247 285.45355006 -124.99804688 284.26171875 C-135.23447908 278.35216598 -145.50277739 272.5012031 -155.765625 266.63671875 C-155.765625 207.56671875 -155.765625 148.49671875 -155.765625 87.63671875 C-149.825625 84.33671875 -143.885625 81.03671875 -137.765625 77.63671875 C-133.96407313 75.44256754 -130.17139545 73.24055723 -126.390625 71.01171875 C-117.5494122 65.82656014 -108.67138814 60.70982856 -99.765625 55.63671875 C-90.04418794 50.09720036 -80.35667183 44.50296681 -70.69873047 38.85327148 C-60.20253836 32.71528466 -49.66749162 26.64524185 -39.13134766 20.57617188 C-35.6166925 18.55089837 -32.10307031 16.52384396 -28.58984375 14.49609375 C-27.99969482 14.15549423 -27.4095459 13.81489471 -26.80151367 13.463974 C-23.96869744 11.82901968 -21.135935 10.1939722 -18.30322266 8.55883789 C-16.31814177 7.41338109 -14.33007239 6.27308012 -12.33837891 5.13916016 C-10.76354062 4.21948329 -9.2074268 3.26541785 -7.68896484 2.25537109 C-4.91601166 0.44033341 -3.34146676 -0.43892148 0 0 Z " fill="#061044" transform="translate(601.765625,310.36328125)"/>
<path d="M0 0 C2 1.0625 2 1.0625 3 3 C3.3125 6.5625 3.3125 6.5625 3 10 C2.34 10.66 1.68 11.32 1 12 C0.60235737 13.98821313 0.26224651 15.98944339 0 18 C1.15242187 17.95875 2.30484375 17.9175 3.4921875 17.875 C7.96270109 17.88286024 11.86084455 18.71531528 16.125 20 C17.21880981 20.3256897 17.21880981 20.3256897 18.3347168 20.65795898 C27.40887818 23.53744029 36.48707662 27.91936417 43 35 C43.99 34.67 44.98 34.34 46 34 C46.68939809 31.67328146 47.35466922 29.33932406 48 27 C49.1875 25.0625 49.1875 25.0625 51 24 C54.92005446 23.50108398 57.11594538 23.44746586 60.5 25.5625 C62 28 62 28 62 31.5625 C61 35 61 35 59.3125 36.8125 C56.61200387 38.19924126 53.90850648 39.14066854 51 40 C51.61612533 43.52871778 53.02859361 45.61138193 55.1875 48.4375 C63.52504544 60.03457967 67.12125137 71.91689697 68 86 C72.41522109 84.73025028 72.41522109 84.73025028 76 82 C79.66254638 82.1331835 82.10984607 82.27674993 85 84.625 C86.46981805 88.11581787 85.98413921 90.39148956 85 94 C82.8481182 96.38244057 81.60176532 96.91193678 78.4375 97.375 C75.51150813 96.9248474 74.99500831 96.07813365 73 94 C71.3437274 93.61835887 69.67639995 93.28030713 68 93 C67.93683594 93.969375 67.87367188 94.93875 67.80859375 95.9375 C66.63222505 109.94457683 62.07099148 121.84168806 53.3828125 132.984375 C51.98139454 135.02711982 51.42532301 136.57893057 51 139 C51.62648438 139.25394531 52.25296875 139.50789062 52.8984375 139.76953125 C53.71570313 140.11371094 54.53296875 140.45789063 55.375 140.8125 C56.18710937 141.14894531 56.99921875 141.48539063 57.8359375 141.83203125 C60 143 60 143 62 146 C61.8096754 149.04519365 61.45228903 151.24618495 59.875 153.875 C56.79484632 155.72309221 54.49557617 155.49060718 51 155 C47.54473084 151.8248878 46.24657179 148.46688226 45 144 C41.8587838 145.44924293 39.26114105 147.23704231 36.5 149.3125 C26.07625883 156.67493686 12.87029573 161.72850731 0 161 C0.8604139 165.33229715 0.8604139 165.33229715 3 169 C3.28250225 172.17815029 3.24504509 174.4180179 2 177.375 C-0.70544036 179.5731703 -2.7087924 179.5712063 -6.125 179.3828125 C-8 179 -8 179 -10 177.375 C-11.25954167 174.38358852 -11.34952958 172.21567216 -11 169 C-10.34 168.34 -9.68 167.68 -9 167 C-8.60235737 165.01178687 -8.26224651 163.01055661 -8 161 C-9.155 161.103125 -10.31 161.20625 -11.5 161.3125 C-25.88968039 161.26717817 -40.62883917 153.50689743 -51 144 C-53.01432266 144.50256112 -53.01432266 144.50256112 -55 146 C-55.74259349 148.31029085 -56.411438 150.645752 -57 153 C-59 155 -59 155 -62.375 155.4375 C-66 155 -66 155 -68.5 152.875 C-70 150 -70 150 -69.9375 146.875 C-68.58333333 142.72222222 -68.58333333 142.72222222 -66 141 C-63.69011685 140.25613932 -61.35684056 139.57809297 -59 139 C-59.61737209 135.43386386 -61.08023402 133.30064772 -63.25 130.4375 C-69.05688798 122.33403542 -72.46892302 113.5941499 -75 104 C-75.18949219 103.32324219 -75.37898437 102.64648438 -75.57421875 101.94921875 C-76.22464199 98.97159308 -76.05835409 96.03441257 -76 93 C-79.40312738 94.05875074 -82.01353231 95.00902154 -85 97 C-88.38403549 96.85899852 -90.31921738 96.57097897 -92.9375 94.375 C-94.49800943 90.88680246 -93.99154664 88.63567102 -93 85 C-91.3125 83 -91.3125 83 -89 82 C-85.32706204 82.22037628 -83.63033454 82.36966546 -81 85 C-78.42938689 85.64767793 -78.42938689 85.64767793 -76 86 C-75.91363281 84.98421875 -75.82726562 83.9684375 -75.73828125 82.921875 C-74.42396636 69.37203242 -70.31041019 54.17909445 -60.26953125 44.296875 C-59.85058594 43.86890625 -59.43164062 43.4409375 -59 43 C-59.22757731 40.83700789 -59.22757731 40.83700789 -60 39 C-61.093125 38.7525 -62.18625 38.505 -63.3125 38.25 C-67 37 -67 37 -68.9375 35.1875 C-70.25518171 32.47462589 -70.52140032 30.97943038 -70 28 C-68.4375 25.6875 -68.4375 25.6875 -66 24 C-62.5 23.4375 -62.5 23.4375 -59 24 C-55.54473084 27.1751122 -54.24657179 30.53311774 -53 35 C-49.89562025 33.56720935 -47.34570438 31.81142107 -44.625 29.75 C-33.71573288 22.0199128 -21.3689163 17.44296182 -8 18 C-8.8604139 13.66770285 -8.8604139 13.66770285 -11 10 C-11.4534413 3.87854251 -11.4534413 3.87854251 -10 1.0625 C-6.75978228 -0.65886567 -3.58042244 -0.52960415 0 0 Z " fill="#F6BDBE" transform="translate(604,398)"/>
<path d="M0 0 C2.48168945 1.17651367 2.48168945 1.17651367 5.11328125 2.66796875 C6.10110596 3.22403809 7.08893066 3.78010742 8.10668945 4.35302734 C9.69356567 5.26109131 9.69356567 5.26109131 11.3125 6.1875 C12.42262451 6.8160791 13.53274902 7.4446582 14.67651367 8.09228516 C23.07794011 12.86370058 31.43033172 17.71904571 39.76489258 22.60620117 C47.47830763 27.12695056 55.2316241 31.57474071 63 36 C72.72142984 41.53953103 82.40895304 47.13375187 92.06689453 52.78344727 C99.32211809 57.02617321 106.59360476 61.23985536 113.875 65.4375 C114.94596924 66.05512207 116.01693848 66.67274414 117.12036133 67.30908203 C122.15006289 70.20849941 127.18138675 73.10504931 132.21612549 75.99571228 C133.95776467 76.99593449 135.6989269 77.99698192 137.43994141 78.99829102 C139.60402445 80.24263093 141.76898746 81.48544243 143.93505859 82.72631836 C145.88333188 83.84715 147.82075856 84.98715788 149.74410439 86.15024567 C152.95748626 88.05730684 152.95748626 88.05730684 156.37474632 89.43845367 C164.96340734 93.52042632 164.96340734 93.52042632 166.75354242 97.80250549 C168.01772453 103.34841074 167.76956655 109.02908094 167.68212891 114.68164062 C167.6997587 116.59105559 167.72291361 118.50042632 167.75115967 120.40971375 C167.81031575 125.58220688 167.78750365 130.75132154 167.74623156 135.92387199 C167.71325749 141.34277147 167.74385886 146.76138668 167.76425171 152.18029785 C167.78788635 161.2797426 167.75678154 170.3778146 167.69482422 179.47705078 C167.62407209 189.98913843 167.64699051 200.49794861 167.71856749 211.00995684 C167.77761266 220.04399891 167.78586287 229.07705573 167.75186479 238.11122847 C167.73162313 243.50319087 167.72881715 248.89361394 167.77183914 254.28547668 C167.80947505 259.35627483 167.78322464 264.42286018 167.70821381 269.49320412 C167.69106366 271.35067059 167.69589811 273.20849343 167.72462845 275.06581688 C167.88490659 286.48210086 167.88490659 286.48210086 166 291 C162.06966627 294.95299409 158.1328471 296.80743937 153 299 C150.82570186 300.22656411 148.6633836 301.47487184 146.51953125 302.75390625 C144.28500298 304.02545846 142.04928614 305.29492382 139.8125 306.5625 C137.34182403 307.96765477 134.87211894 309.37451273 132.40234375 310.78125 C131.78224426 311.13417618 131.16214478 311.48710236 130.52325439 311.85072327 C124.29361915 315.39784056 118.0824978 318.97679664 111.875 322.5625 C110.81128174 323.17681885 109.74756348 323.7911377 108.65161133 324.42407227 C106.50690413 325.66292223 104.3622912 326.90193541 102.21777344 328.14111328 C96.81329351 331.26324607 91.40649893 334.38136526 86 337.5 C84.92878906 338.11810547 83.85757813 338.73621094 82.75390625 339.37304688 C77.31353925 342.51222374 71.87237045 345.64999629 66.4296875 348.78515625 C56.89526909 354.27868925 47.36399084 359.77721157 37.85913086 365.32177734 C35.8869538 366.47220051 33.9138249 367.62099366 31.93969727 368.76806641 C26.71262846 371.80998137 21.51324321 374.89100309 16.33984375 378.0234375 C15.24752441 378.67820068 14.15520508 379.33296387 13.02978516 380.00756836 C10.92980094 381.26727205 8.83664044 382.53844207 6.75146484 383.82250977 C5.80867676 384.38510498 4.86588867 384.9477002 3.89453125 385.52734375 C3.06800049 386.02999756 2.24146973 386.53265137 1.38989258 387.05053711 C-1.57007594 388.22648129 -2.99462131 387.95283614 -6 387 C-7.83911133 386.19067383 -7.83911133 386.19067383 -9.58203125 385.20703125 C-10.25347168 384.83175293 -10.92491211 384.45647461 -11.61669922 384.06982422 C-12.34131348 383.65490723 -13.06592773 383.23999023 -13.8125 382.8125 C-14.59383301 382.37180176 -15.37516602 381.93110352 -16.18017578 381.47705078 C-23.63111697 377.25528676 -31.02075732 372.92644818 -38.40942383 368.59692383 C-46.24230937 364.01018748 -54.1130427 359.49275372 -62 355 C-71.72143706 349.46048161 -81.40895317 343.86624806 -91.06689453 338.21655273 C-101.5806503 332.068295 -112.13329606 325.98802071 -122.68701172 319.90869141 C-131.45122255 314.85942094 -140.21164701 309.80358493 -148.97167969 304.74707031 C-151.92032698 303.04596421 -154.87022045 301.34703651 -157.8203125 299.6484375 C-159.56774414 298.64068708 -161.31514212 297.6328783 -163.0625 296.625 C-163.86034912 296.16641602 -164.65819824 295.70783203 -165.48022461 295.23535156 C-170.88643197 292.11356803 -170.88643197 292.11356803 -172 291 C-172.12653592 288.50193895 -172.18789565 286.03038648 -172.20773315 283.53062439 C-172.21775993 282.73912178 -172.22778672 281.94761917 -172.23811734 281.13213164 C-172.27040395 278.45913203 -172.2952136 275.7861177 -172.31982422 273.11303711 C-172.34080809 271.20470908 -172.36205442 269.29638392 -172.38354492 267.38806152 C-172.5715118 249.94523486 -172.67413886 232.50145049 -172.75568962 215.05783749 C-172.81727475 202.15886869 -172.9207942 189.26164304 -173.07838428 176.36348337 C-173.18540421 167.30018422 -173.24272878 158.23736531 -173.26382077 149.17346388 C-173.27790133 143.75747741 -173.31440158 138.34377146 -173.405056 132.92848015 C-173.489529 127.82968017 -173.51248931 122.73425814 -173.48869324 117.63484955 C-173.49066997 115.76586633 -173.51485111 113.89675149 -173.56312943 112.02839088 C-173.84494604 100.53378018 -173.84494604 100.53378018 -172 96 C-168.07632618 92.02724096 -164.14494305 90.1875628 -159 88 C-156.82547233 86.77384285 -154.66310948 85.52558752 -152.51953125 84.24609375 C-150.28500298 82.97454154 -148.04928614 81.70507618 -145.8125 80.4375 C-143.34182403 79.03234523 -140.87211894 77.62548727 -138.40234375 76.21875 C-137.78224426 75.86582382 -137.16214478 75.51289764 -136.52325439 75.14927673 C-130.29361915 71.60215944 -124.0824978 68.02320336 -117.875 64.4375 C-116.81128174 63.82318115 -115.74756348 63.2088623 -114.65161133 62.57592773 C-112.50690413 61.33707777 -110.3622912 60.09806459 -108.21777344 58.85888672 C-102.81329355 55.73675395 -97.40652588 52.61858796 -92 49.5 C-89.8333225 48.25001878 -87.66665583 47.00001879 -85.5 45.75 C-72.5 38.25 -72.5 38.25 -69.24902344 36.37451172 C-67.08552524 35.12628966 -64.92211357 33.87791761 -62.75878906 32.62939453 C-57.29434983 29.47594744 -51.82836355 26.32523904 -46.359375 23.1796875 C-45.26455811 22.54933594 -44.16974121 21.91898437 -43.04174805 21.26953125 C-40.86706042 20.01791247 -38.69145781 18.767882 -36.51489258 17.51953125 C-31.18627429 14.45438604 -25.89450653 11.34389098 -20.65234375 8.1328125 C-19.14365723 7.21556396 -19.14365723 7.21556396 -17.60449219 6.27978516 C-15.70811583 5.12272258 -13.81895231 3.95372516 -11.93847656 2.77099609 C-11.09639648 2.25875488 -10.25431641 1.74651367 -9.38671875 1.21875 C-8.29170044 0.5371582 -8.29170044 0.5371582 -7.17456055 -0.15820312 C-4.31965011 -1.2633711 -2.90049615 -0.91777641 0 0 Z M-9.40625 18.97265625 C-10.52918457 19.61726807 -11.65211914 20.26187988 -12.80908203 20.92602539 C-14.03944103 21.638092 -15.26974558 22.35025272 -16.5 23.0625 C-17.77045729 23.793909 -19.04113079 24.52494258 -20.31201172 25.25561523 C-23.58193185 27.13695711 -26.84891687 29.02333366 -30.1151123 30.91113281 C-32.98403727 32.5684614 -35.85536991 34.22160385 -38.7265625 35.875 C-44.08077593 38.95968687 -49.43197991 42.04955239 -54.78222656 45.14111328 C-60.18670645 48.26324605 -65.59347412 51.38141204 -71 54.5 C-73.1666775 55.74998122 -75.33334417 56.99998121 -77.5 58.25 C-81.83333333 60.75 -86.16666667 63.25 -90.5 65.75 C-91.57290283 66.3689917 -92.64580566 66.9879834 -93.7512207 67.62573242 C-95.91378583 68.8733474 -98.07638339 70.12090616 -100.23901367 71.3684082 C-105.71870371 74.52943449 -111.19779358 77.69149309 -116.67578125 80.85546875 C-117.78759766 81.49742187 -118.89941406 82.139375 -120.04492188 82.80078125 C-122.10764131 83.99180754 -124.17016747 85.18316869 -126.23242188 86.375 C-136.46885408 92.28455277 -146.73715239 98.13551565 -157 104 C-157 163.07 -157 222.14 -157 283 C-148.09 287.95 -148.09 287.95 -139 293 C-135.19844813 295.19415121 -131.40577045 297.39616152 -127.625 299.625 C-118.7837872 304.81015861 -109.90576314 309.92689019 -101 315 C-91.27856294 320.53951839 -81.59104683 326.13375194 -71.93310547 331.78344727 C-61.43691336 337.92143409 -50.90186662 343.9914769 -40.36572266 350.06054688 C-36.8510675 352.08582038 -33.33744531 354.11287479 -29.82421875 356.140625 C-29.23406982 356.48122452 -28.6439209 356.82182404 -28.03588867 357.17274475 C-25.20307244 358.80769907 -22.37031 360.44274655 -19.53759766 362.07788086 C-17.55251677 363.22333766 -15.56444739 364.36363863 -13.57275391 365.49755859 C-11.99791562 366.41723546 -10.4418018 367.3713009 -8.92333984 368.38134766 C-6.15038666 370.19638534 -4.57584176 371.07564023 -1.234375 370.63671875 C3.54560096 368.21786618 8.15026471 365.5567577 12.75 362.8125 C14.91367549 361.53580222 17.07775166 360.25978329 19.2421875 358.984375 C20.35819336 358.32501953 21.47419922 357.66566406 22.62402344 356.98632812 C28.0212633 353.81074644 33.44764 350.6862344 38.875 347.5625 C41.05991376 346.30341652 43.24480949 345.04430177 45.4296875 343.78515625 C46.51475586 343.16012207 47.59982422 342.53508789 48.71777344 341.89111328 C54.14659942 338.76319852 59.57319281 335.63141552 65 332.5 C67.16665583 331.24998121 69.3333225 329.99998122 71.5 328.75 C72.5725 328.13125 73.645 327.5125 74.75 326.875 C78 325 81.25 323.125 84.5 321.25 C85.57290283 320.6310083 86.64580566 320.0120166 87.7512207 319.37426758 C89.91378583 318.1266526 92.07638339 316.87909384 94.23901367 315.6315918 C99.71870371 312.47056551 105.19779358 309.30850691 110.67578125 306.14453125 C112.34350586 305.18160156 112.34350586 305.18160156 114.04492188 304.19921875 C116.10764131 303.00819246 118.17016747 301.81683131 120.23242188 300.625 C130.46885408 294.71544723 140.73715239 288.86448435 151 283 C151 223.93 151 164.86 151 104 C145.06 100.7 139.12 97.4 133 94 C129.15668654 91.78516743 125.32215286 89.56271064 121.5 87.3125 C119.44562799 86.10883637 117.39092877 84.90573107 115.3359375 83.703125 C114.2953418 83.09404297 113.25474609 82.48496094 112.18261719 81.85742188 C106.8410891 78.74002807 101.48351626 75.65057458 96.125 72.5625 C95.04541016 71.94028564 93.96582031 71.31807129 92.85351562 70.67700195 C90.6631748 69.41488483 88.47274498 68.15292215 86.28222656 66.89111328 C80.85340058 63.76319852 75.42680719 60.63141552 70 57.5 C67.83334417 56.24998121 65.6666775 54.99998122 63.5 53.75 C50.5 46.25 50.5 46.25 47.24536133 44.37231445 C45.09416776 43.13124746 42.94296345 41.89019907 40.79174805 40.64916992 C35.74037001 37.73501656 30.6890969 34.82068182 25.63821411 31.90567017 C23.84933082 30.87326522 22.06041283 29.84092044 20.27148438 28.80859375 C18.02662364 27.51314052 15.7818281 26.2175743 13.53710938 24.921875 C11.55498363 23.7780992 9.57213093 22.63558177 7.58837891 21.49462891 C5.98204251 20.56706888 4.37939541 19.63304926 2.78271484 18.68896484 C-2.73635805 15.44403994 -3.92515672 15.81270146 -9.40625 18.97265625 Z " fill="#FBC0C1" transform="translate(603,294)"/>
<path d="M0 0 C1.43655854 -0.08131463 2.8744483 -0.13933559 4.3125 -0.1875 C5.51326172 -0.23970703 5.51326172 -0.23970703 6.73828125 -0.29296875 C9 0 9 0 10.61532593 1.05149841 C12.70719659 3.99516104 12.43113336 6.98733165 12.41650391 10.46899414 C12.42938194 11.60600014 12.42938194 11.60600014 12.44252014 12.76597595 C12.46762207 15.27246336 12.47196253 17.77855455 12.4765625 20.28515625 C12.49086841 22.02486892 12.50662469 23.76457023 12.52377319 25.5042572 C12.56566759 30.08523297 12.59063727 34.66613828 12.61126709 39.24725342 C12.64705565 46.58390877 12.7079826 53.92039028 12.76975632 61.25686455 C12.7888856 63.82391694 12.800588 66.39092289 12.81118774 68.95802307 C12.82139685 70.52548321 12.83175452 72.09294238 12.84228516 73.66040039 C12.84332748 74.37785431 12.84436981 75.09530823 12.84544373 75.83450317 C12.82499183 79.54157935 12.82499183 79.54157935 14 83 C16.37374861 83.33425735 16.37374861 83.33425735 19 83 C22.43687321 79.35844948 23.07360089 75.30807228 24.15625 70.55859375 C25.03813613 67.88435572 25.77344744 66.68695436 28 65 C28.66 65 29.32 65 30 65 C29.9175 64.236875 29.835 63.47375 29.75 62.6875 C30.45160293 52.33885676 35.39995907 44.83736077 43 38 C46.75471158 35.72591997 49.60731157 35.54558396 54 36 C58.33833918 38.25259919 61.20287362 40.4073437 63 45 C64.16385975 53.1901242 62.1785348 59.59776778 57.38671875 66.234375 C54.04551812 70.29419306 51.02980892 73.12844319 46 75 C45.34 75 44.68 75 44 75 C45.66930865 79.16048468 45.66930865 79.16048468 48.80859375 82.1640625 C53.41208975 83.9201198 58.47360723 84.10286761 63.03125 82.11328125 C69.0027191 77.75253737 70.81701255 70.78033889 73 64 C74.32 64 75.64 64 77 64 C77.020625 63.071875 77.04125 62.14375 77.0625 61.1875 C78.1429437 53.80446802 83.26540069 46.97045543 89.0625 42.5 C90.35874877 41.64160625 91.67001573 40.80513511 93 40 C93.928125 39.401875 94.85625 38.80375 95.8125 38.1875 C100.3875561 36.48306733 105.11146766 35.66031346 110 36 C112.3203125 37.29296875 112.3203125 37.29296875 114 39 C114.25 42.1875 114.25 42.1875 114 45 C113.29875 45.01417969 112.5975 45.02835938 111.875 45.04296875 C103.63566215 45.45717459 98.64953077 47.45184509 92.75 53.1875 C88.21028812 60.48346552 85.95824004 67.37484033 87 76 C87.95289875 79.26708143 88.60616006 80.60616006 91 83 C93.9149255 83.5838196 93.9149255 83.5838196 97 83 C99.69016655 80.3633285 100.89467338 78.72830863 101.43823242 74.96972656 C101.3972644 73.32182129 101.3972644 73.32182129 101.35546875 71.640625 C101.33806641 70.44308594 101.32066406 69.24554687 101.30273438 68.01171875 C101.26470703 66.77035156 101.22667969 65.52898437 101.1875 64.25 C101.13548507 61.77611938 101.08710016 59.30215881 101.04296875 56.828125 C101.01227295 55.7340332 100.98157715 54.63994141 100.94995117 53.51269531 C101 51 101 51 102 50 C105.48726225 49.61252642 107.31139505 49.48104008 110.16333008 51.63037109 C112.51184808 54.66037452 112.52364868 56.4206758 112.57421875 60.2265625 C112.60193359 61.4228125 112.62964844 62.6190625 112.65820312 63.8515625 C112.67270508 65.71941406 112.67270508 65.71941406 112.6875 67.625 C112.72945309 70.09641827 112.7748465 72.56778132 112.82421875 75.0390625 C112.84101685 76.68189209 112.84101685 76.68189209 112.8581543 78.35791016 C112.82276582 80.97771537 112.82276582 80.97771537 114 83 C116.37374861 83.33425735 116.37374861 83.33425735 119 83 C122.59770039 79.22151064 123.36338252 74.5997798 124.64453125 69.6796875 C125.09183594 68.79539062 125.53914062 67.91109375 126 67 C126.97453125 66.69191406 127.9490625 66.38382813 128.953125 66.06640625 C132.29482043 65.27585823 132.29482043 65.27585823 133.71484375 61.91015625 C134.15275304 60.63764927 134.55903876 59.35393549 134.9375 58.0625 C135.25847656 57.05521851 135.25847656 57.05521851 135.5859375 56.02758789 C137.09814591 50.83801974 136.92668547 46.64655023 136.0859375 41.30859375 C135.98426268 38.57723831 136.43959659 37.61450919 138.125 35.5 C144.52869757 29.93156733 144.52869757 29.93156733 148.6875 30.125 C151 31 151 31 153 34 C152.6801364 37.39055417 152.16632862 40.48170814 151.125 43.7265625 C150.93728396 48.64237631 153.42209831 51.25484906 156.3125 55.0625 C164.31555717 65.90437745 164.31555717 65.90437745 164.125 73.8125 C164.10695313 74.78832031 164.08890625 75.76414062 164.0703125 76.76953125 C164.04710937 77.50558594 164.02390625 78.24164062 164 79 C170.59080802 76.02767481 172.99075665 72.48998105 176 66 C178.86724686 66.57344937 179.8614515 66.8614515 182 69 C182 74.47372205 180.43021221 77.57673612 176.7890625 81.43359375 C171.52879246 86.03920137 165.254497 87.60693816 158.59765625 89.2734375 C155.76577095 89.98978135 155.76577095 89.98978135 152.375 91.6875 C147.02153557 93.76940283 142.66549716 93.98400956 137.23828125 91.98046875 C134.68591601 90.7752863 132.30840393 89.62595912 130 88 C129.67 87.01 129.34 86.02 129 85 C128.34 85 127.68 85 127 85 C126.814375 85.5775 126.62875 86.155 126.4375 86.75 C124.33676435 90.03810798 121.56141814 91.63129813 118 93 C114.44112439 93.69781875 111.38406131 93.79769555 108.18359375 91.953125 C107.60738281 91.55609375 107.03117188 91.1590625 106.4375 90.75 C105.303125 90.1725 104.16875 89.595 103 89 C99.83321021 90.55158497 99.83321021 90.55158497 97.88671875 91.953125 C94.40802055 93.88333436 90.83678468 93.69886788 87 93 C83.01299457 90.93266385 80.42648159 88.76104646 78 85 C77.34 84.01 76.68 83.02 76 82 C75.52433594 82.68835938 75.52433594 82.68835938 75.0390625 83.390625 C70.299328 89.62298307 64.96979949 92.24850393 57.26171875 93.4140625 C50.26202301 93.79028377 44.66933329 92.15288575 39 88 C36.1359631 84.9555055 33.86768925 81.7353785 32 78 C31.6596875 78.66386719 31.319375 79.32773437 30.96875 80.01171875 C27.65311457 86.0521716 24.61972301 90.51916218 18 93 C14.50635536 93.74148099 11.38436606 93.80257429 8.1875 91.94921875 C7.61 91.55347656 7.0325 91.15773438 6.4375 90.75 C5.303125 90.1725 4.16875 89.595 3 89 C-0.11052509 90.55844411 -0.11052509 90.55844411 -2.046875 91.953125 C-5.82705885 93.97930355 -9.85926172 93.66498611 -14 93 C-19.01420228 90.63481024 -22.44852253 86.88948471 -25 82 C-28.03761895 70.48396361 -25.77526557 60.01120749 -20.25 49.75 C-15.06766984 43.41604091 -9.91657458 39.24302946 -2 37 C-0.68 37 0.64 37 2 37 C1.88173257 32.21264074 1.75748287 27.42548829 1.62768555 22.63842773 C1.58437251 21.00988996 1.54269482 19.38130784 1.50268555 17.75268555 C1.44489497 15.41181065 1.38122602 13.07115824 1.31640625 10.73046875 C1.29969376 10.00224411 1.28298126 9.27401947 1.26576233 8.52372742 C1.17532762 5.43833061 0.98276007 2.94828022 0 0 Z " fill="#F8BEBF" transform="translate(843,762)"/>
<path d="M0 0 C2.93453261 0.36681658 3.86437246 0.86437246 6 3 C5.78621927 8.55829893 4.09051883 11.50469988 1 16 C-2.95803273 25.69718018 -1.6353844 36.41383756 2 46 C5.02829521 46.6663569 7.89398005 47.14543237 11 47 C14.08798674 44.74942433 14.08798674 44.74942433 16 42 C15.34 42 14.68 42 14 42 C7.9790566 34.70730617 5.36922292 25.99971696 5.64453125 16.65234375 C6.3299833 11.53781693 8.44334162 7.77136988 11.8125 3.9375 C15.28386548 2.44977194 17.41987845 2.93224445 21 4 C25.06350634 7.9732062 27.7147696 11.9103384 28.24291992 17.63134766 C28.23881104 18.54964355 28.23470215 19.46793945 28.23046875 20.4140625 C28.22853516 21.42210937 28.22660156 22.43015625 28.22460938 23.46875 C28.20624023 25.03109375 28.20624023 25.03109375 28.1875 26.625 C28.18685547 27.67429687 28.18621094 28.72359375 28.18554688 29.8046875 C28.14070144 37.57789567 28.14070144 37.57789567 27 41 C32.80363133 39.78308769 32.80363133 39.78308769 37 36 C38.10621343 33.69495993 39.05665394 31.38082578 40 29 C41.32 29 42.64 29 44 29 C43.8453125 27.4221875 43.8453125 27.4221875 43.6875 25.8125 C43.72080216 16.43794127 48.2616329 7.89362056 54.64453125 1.29296875 C55.09183594 0.86628906 55.53914063 0.43960938 56 0 C59.875 0.875 59.875 0.875 61 2 C61.57055677 7.8196791 60.36705838 10.34553695 57 15 C54.85525924 20.04954754 54.66525759 24.60843866 54.6875 30 C54.67138672 30.78117188 54.65527344 31.56234375 54.63867188 32.3671875 C54.63451321 37.3076765 55.22928808 40.74335593 58 45 C61.46923881 47.31282587 62.92205575 47.42478586 67 47 C68.87890434 45.62493901 68.87890434 45.62493901 70 44 C68.92851916 41.84707106 67.84618418 39.70099355 66.74609375 37.5625 C66.09833984 36.2940625 66.09833984 36.2940625 65.4375 35 C64.78587891 33.7315625 64.78587891 33.7315625 64.12109375 32.4375 C61.11116826 25.89327176 60.28825411 16.65222028 62.7890625 9.85546875 C63.8125 8.3125 63.8125 8.3125 66 6 C66.45375 5.38125 66.9075 4.7625 67.375 4.125 C70.03515015 2.28335759 71.85914578 2.49746332 75 3 C79.84943103 6.57934195 82.63448204 11.19839395 84 17 C85.55216807 34.00933324 85.55216807 34.00933324 82 41 C87.44775484 40.1095676 87.44775484 40.1095676 91.875 37.1875 C93.08204169 34.8404745 94.06634448 32.46751815 95 30 C95.495 29.505 95.495 29.505 96 29 C97.65 29 99.3 29 101 29 C100.67 20.09 100.34 11.18 100 2 C107.875 2 107.875 2 112 6 C112.9590625 4.7934375 112.9590625 4.7934375 113.9375 3.5625 C117.88944246 0.25577264 120.91781177 -0.30529046 126 0 C130.74457154 1.61136392 133.33876151 3.77872515 136 8 C141.6465697 19.58394985 139.00741883 32.05983119 136 44 C141.97829533 42.2197965 145.33942084 40.20681986 148.5625 34.75 C149.3998575 33.17967102 150.22127048 31.60021281 151 30 C155.875 30.875 155.875 30.875 157 32 C157.49528325 36.12736045 157.31640475 39.10640646 155.125 42.625 C149.67831966 49.43335043 141.72366698 51.25845852 133.484375 52.46875 C129.91825333 53.2313169 127.86011916 54.78340765 125 57 C122.17283905 57.94238698 120.36823877 58.13465647 117.4375 58.125 C116.25994141 58.12886719 116.25994141 58.12886719 115.05859375 58.1328125 C113 58 113 58 111 57 C111.00999275 57.8544445 111.00999275 57.8544445 111.02018738 58.72615051 C111.08648119 64.64688481 111.13177567 70.56751393 111.16479492 76.48852539 C111.17989525 78.69918092 111.20037709 80.90980643 111.22631836 83.12036133 C111.26264655 86.29515993 111.27971384 89.46956297 111.29296875 92.64453125 C111.30845261 93.63524124 111.32393646 94.62595123 111.33988953 95.64668274 C111.34011612 96.56741074 111.34034271 97.48813873 111.34057617 98.43676758 C111.35056892 99.65255241 111.35056892 99.65255241 111.36076355 100.89289856 C110.90744424 103.5405878 110.14668212 104.42217133 108 106 C104.875 106.25 104.875 106.25 102 106 C100.19668389 104.19668389 100.82800706 101.44451543 100.79467773 99.01147461 C100.7647599 97.08959572 100.7647599 97.08959572 100.73423767 95.12889099 C100.71725203 93.72004316 100.70037327 92.31119405 100.68359375 90.90234375 C100.66303085 89.46887095 100.64203456 88.03540431 100.62062073 86.60194397 C100.56533141 82.8224688 100.51595255 79.0429383 100.46777344 75.2633667 C100.41760835 71.40925145 100.36189629 67.55521691 100.30664062 63.70117188 C100.19897521 56.13418286 100.09754903 48.5671269 100 41 C99.22615967 41.79817139 98.45231934 42.59634277 97.6550293 43.41870117 C93.53081531 47.42838526 90.30569951 48.14684733 84.6875 48.1875 C78.25256686 48.63098864 75.34808454 51.55383836 71 56 C67.04474536 57.97762732 62.31019688 57.42863836 58 57 C51.69841231 54.88413844 48.25912057 50.38333536 45.25 44.6875 C44.8375 43.800625 44.425 42.91375 44 42 C42.6078125 43.2065625 42.6078125 43.2065625 41.1875 44.4375 C37.31272262 47.79564039 34.09447092 48.07584031 29.0625 48.25 C24.27494695 48.48525846 24.27494695 48.48525846 20.625 51.375 C20.08875 52.24125 19.5525 53.1075 19 54 C13.74040818 57.72019909 8.21145249 57.88356365 2 57 C-3.65731887 55.25331493 -6.57222213 51.70362293 -9.5 46.6875 C-14.26276003 36.09491348 -13.02686473 24.67714016 -9.28125 13.921875 C-6.98517886 8.68571276 -4.04665124 4.04665124 0 0 Z " fill="#F9BEC0" transform="translate(435,798)"/>
<path d="M0 0 C7 0 7 0 9.41308594 0.92114258 C12.04517737 4.36918236 11.48921186 8.05304567 11.390625 12.26171875 C11.38496521 13.16751175 11.37930542 14.07330475 11.37347412 15.00654602 C11.35107616 17.90073411 11.30087392 20.7936859 11.25 23.6875 C11.2299394 25.64907067 11.21168786 27.61066073 11.1953125 29.57226562 C11.15120018 34.38198706 11.08214941 39.1907839 11 44 C12.12305542 43.75660889 12.12305542 43.75660889 13.26879883 43.50830078 C16.7727679 42.85618104 20.12532078 42.86802218 23.6875 42.875 C24.36361328 42.87113281 25.03972656 42.86726562 25.73632812 42.86328125 C30.7465035 42.87325175 30.7465035 42.87325175 33 44 C33.125 51.625 33.125 51.625 32 55 C31.42475586 54.84152588 30.84951172 54.68305176 30.25683594 54.51977539 C28.09060223 54.02086674 26.10677317 53.80111676 23.890625 53.68359375 C22.75947266 53.62075195 22.75947266 53.62075195 21.60546875 53.55664062 C20.82816406 53.51732422 20.05085937 53.47800781 19.25 53.4375 C18.06083984 53.37272461 18.06083984 53.37272461 16.84765625 53.30664062 C14.89862185 53.20097009 12.94933252 53.10002034 11 53 C13.28860171 57.0997627 15.66042387 61.04382938 18.29858398 64.93261719 C27.25652061 78.24374617 31.41244204 91.91175299 31.25 107.9375 C31.24323242 108.90461914 31.23646484 109.87173828 31.22949219 110.86816406 C31.04486016 123.59059863 29.38892859 136.61107141 20 146 C16.74584606 148.30939957 13.93154881 148.55041683 10 148 C4.97607536 144.94624188 3.31921178 142.18052124 1.60238647 136.66751099 C0.47176541 131.66085126 0.51763906 126.64025207 0.48828125 121.52734375 C0.47033005 120.3636879 0.45237885 119.20003204 0.43388367 118.00111389 C0.38004383 114.31327858 0.34596881 110.62557076 0.3125 106.9375 C0.27930378 104.42511257 0.24481201 101.91274191 0.20898438 99.40039062 C0.12433248 93.26704147 0.05587186 87.13367526 0 81 C-0.94875 81.804375 -1.8975 82.60875 -2.875 83.4375 C-6.77868988 86.74715012 -8.97302426 87.04132522 -14.125 87.125 C-20.26597283 87.51856511 -23.18491167 88.91589508 -27.31640625 93.40625 C-30.69537402 96.60490162 -35.24467804 96.33970818 -39.6875 96.28125 C-44.57543076 95.68677194 -47.84126878 93.1909182 -51.25 89.6875 C-55.46151785 83.21981188 -56.55737216 77.9829848 -56.5 70.375 C-56.49141968 69.05483887 -56.49141968 69.05483887 -56.48266602 67.70800781 C-56.16786677 56.12085172 -52.49630175 47.10454144 -44 39 C-42.125 39.3125 -42.125 39.3125 -40 40 C-38 43 -38 43 -38.18359375 45.35546875 C-39.10349868 48.3352565 -40.46247712 50.63823008 -42.0625 53.3125 C-46.24023118 61.43698203 -46.31709012 69.87114063 -44.4140625 78.7265625 C-43.19026468 82.34531949 -42.21876559 83.85415627 -39 86 C-34.92509248 86.33957563 -33.46998729 86.31332486 -30 84 C-30.61119181 80.89596969 -31.637175 78.83562998 -33.4375 76.25 C-38.04610629 69.01741845 -38.82283029 61.48148142 -38 53 C-36.86596083 48.51350925 -34.80827311 44.72019508 -31 42 C-27.37323922 41.38267902 -25.60294979 41.66981321 -22.375 43.4375 C-15.43091199 50.92980548 -15.47324952 58.95647115 -15.6640625 68.6953125 C-15.86016442 72.71989964 -16.73420434 76.18236029 -18 80 C-11.9706796 79.10511163 -11.9706796 79.10511163 -7.625 75.125 C-7.08875 74.09375 -6.5525 73.0625 -6 72 C-5.38125 70.824375 -5.38125 70.824375 -4.75 69.625 C-4.5025 69.08875 -4.255 68.5525 -4 68 C-2.35 68 -0.7 68 1 68 C0.93981983 65.74926172 0.85098794 63.49927675 0.75 61.25 C0.70359375 59.99703125 0.6571875 58.7440625 0.609375 57.453125 C-0.08316001 53.52875992 -1.10228059 52.57055754 -4 50 C-3.75 47.25 -3.75 47.25 -3 45 C-1.68 45 -0.36 45 1 45 C0.67 30.15 0.34 15.3 0 0 Z " fill="#FABFC0" transform="translate(681,759)"/>
<path d="M0 0 C3.375 1.5 3.375 1.5 6 3 C9.87802695 3.44290923 9.87802695 3.44290923 11.6875 1.5 C15.3267645 -0.860604 18.78781782 -0.48547184 23 0 C27.94953503 1.17446594 30.37431305 2.99491364 33.16333008 7.11425781 C37.21593256 14.1519234 36.79827387 21.43772422 36.69921875 29.296875 C36.7028597 30.86005633 36.70957268 32.4232332 36.7191925 33.98638916 C36.73814625 38.07450001 36.72432733 42.16175446 36.70068359 46.24981689 C36.66611774 52.80500739 36.67215308 59.35999211 36.6968174 65.91519928 C36.69917727 68.1943142 36.68143959 70.47263305 36.6615448 72.75164795 C36.66129658 74.15441899 36.66169464 75.55719034 36.6628418 76.95996094 C36.65235054 78.78669342 36.65235054 78.78669342 36.64164734 80.65032959 C37.04190649 84.39171725 38.04480846 86.80316929 40 90 C40.66 90.33 41.32 90.66 42 91 C41.52 95.56 41.52 95.56 39.375 97.375 C35.84002008 98.30525787 33.51063526 98.00303865 30 97 C26.21967335 92.5163813 25.5009711 89.30380376 25.50170898 83.51342773 C25.49619019 82.78906525 25.49067139 82.06470276 25.48498535 81.31838989 C25.47570255 79.75520467 25.47552934 78.19194381 25.48357964 76.62875175 C25.49625364 74.15235179 25.48488152 71.67705918 25.46754456 69.20069885 C25.44088953 64.8378339 25.43524726 60.47524226 25.43664551 56.11230469 C25.43887729 49.12618178 25.4247269 42.14039637 25.38105965 35.15440559 C25.37123493 32.7185953 25.37992995 30.28331809 25.38975525 27.84751892 C25.38361019 26.35073499 25.37669817 24.85395395 25.36889648 23.35717773 C25.36985825 22.05401108 25.37082001 20.75084442 25.37181091 19.40818787 C24.974292 15.76434878 24.28995948 13.84321747 22 11 C18.95720628 10.33319632 18.95720628 10.33319632 16 11 C13.52850982 14.70723527 13.69341856 17.57525956 13.68115234 21.86791992 C13.66608391 23.06826622 13.66608391 23.06826622 13.65071106 24.29286194 C13.61981264 26.93872355 13.60282553 29.58448367 13.5859375 32.23046875 C13.5672312 34.06465024 13.54765819 35.89882308 13.5272522 37.73298645 C13.47586814 42.56129867 13.43627603 47.38963881 13.39910889 52.21807861 C13.35910854 57.14480532 13.30799811 62.07141525 13.2578125 66.99804688 C13.16097895 76.66528263 13.07659796 86.33258422 13 96 C9.45578766 97.50450624 6.87994988 98.32332916 3 98 C1.02294515 96.02294515 1.83575667 92.12783492 1.82641602 89.42260742 C1.819729 88.62909378 1.81304199 87.83558014 1.80615234 87.01802063 C1.79206804 85.28885137 1.78018485 83.55966314 1.77020454 81.83046532 C1.75384133 79.09461493 1.73060467 76.35890461 1.70530701 73.62312317 C1.63440849 65.84248803 1.57443046 58.06179476 1.52319336 50.28100586 C1.49140502 45.52707313 1.45012593 40.77329921 1.40299797 36.01949501 C1.38697236 34.20583263 1.37465338 32.39213361 1.36609077 30.57842064 C1.35393985 28.04064188 1.32978991 25.50323633 1.30297852 22.96557617 C1.30238937 22.21476776 1.30180023 21.46395935 1.30119324 20.69039917 C1.24918766 16.97652739 1.06087483 14.15549922 -1 11 C-3.64 11 -6.28 11 -9 11 C-10.16076138 14.68867297 -10.13124681 18.1785455 -10.1418457 22.02832031 C-10.14532013 22.72806473 -10.14879456 23.42780914 -10.15237427 24.14875793 C-10.15971215 25.66506409 -10.16506799 27.18138085 -10.16866493 28.6977005 C-10.17585579 31.1030589 -10.19154259 33.5082163 -10.21000671 35.91351318 C-10.26234735 42.75139582 -10.31041859 49.58916749 -10.32592773 56.42724609 C-10.3360451 60.61421708 -10.3654635 64.80067998 -10.40724754 68.98744965 C-10.41950875 70.57729997 -10.42468776 72.1672222 -10.42244911 73.75711823 C-10.40583606 89.40875878 -10.40583606 89.40875878 -15 96 C-18.69486103 98.46324069 -20.63293092 98.38991688 -25 98 C-26.9375 96.75 -26.9375 96.75 -28 95 C-28 93.68 -28 92.36 -28 91 C-27.071875 90.690625 -27.071875 90.690625 -26.125 90.375 C-23.07893936 88.40401959 -22.91430631 86.46851272 -22 83 C-21.70307244 79.62321208 -21.70307244 79.62321208 -21.74462891 76.02001953 C-21.73919823 75.0138559 -21.73919823 75.0138559 -21.73365784 73.98736572 C-21.72680003 72.54039996 -21.72425157 71.09340853 -21.72560501 69.64642715 C-21.72657636 67.35003662 -21.71355659 65.05410638 -21.69662476 62.75778198 C-21.65053753 56.23227473 -21.62575796 49.70681695 -21.61914062 43.18115234 C-21.61410644 39.17992806 -21.58976355 35.17918735 -21.55381393 31.17812729 C-21.54406267 29.66083565 -21.54165832 28.14347711 -21.54698563 26.62616348 C-21.59654491 11.81738302 -21.59654491 11.81738302 -17 5 C-11.50146367 -0.10578373 -7.32803538 -0.67643403 0 0 Z " fill="#F9BFC0" transform="translate(205,757)"/>
<path d="M0 0 C4.22010347 3.46131639 6.24839006 5.99881838 7.0625 11.55078125 C7.45643416 21.17106804 5.40256897 27.00707085 -0.9140625 34.11328125 C-1.7390625 34.83515625 -2.5640625 35.55703125 -3.4140625 36.30078125 C-4.55875 37.35265625 -4.55875 37.35265625 -5.7265625 38.42578125 C-11.18089296 42.23112808 -16.70256898 44.09036872 -23.4140625 43.30078125 C-25.3515625 42.17578125 -25.3515625 42.17578125 -26.4140625 40.30078125 C-26.6015625 37.11328125 -26.6015625 37.11328125 -26.4140625 34.30078125 C-25.76179688 34.2028125 -25.10953125 34.10484375 -24.4375 34.00390625 C-17.22477286 32.76987034 -12.95633346 30.73006239 -7.6015625 25.61328125 C-4.89668761 21.51732784 -4.07953877 18.18854466 -4.4140625 13.30078125 C-5.48216078 10.76035865 -5.48216078 10.76035865 -7.4140625 9.30078125 C-11.46976502 7.94888041 -15.17313478 7.74352624 -19.4140625 8.30078125 C-22.7973178 10.16541185 -22.7973178 10.16541185 -25.4140625 12.30078125 C-26.0740625 12.30078125 -26.7340625 12.30078125 -27.4140625 12.30078125 C-27.84332031 13.16896484 -27.84332031 13.16896484 -28.28125 14.0546875 C-28.9863193 15.45266974 -29.71663047 16.83855716 -30.484375 18.203125 C-34.35932348 25.6803404 -34.60690864 33.47427113 -32.59521484 41.61401367 C-31.49774011 44.92505177 -30.30236633 48.1745177 -29.0390625 51.42578125 C-24.37329711 63.74631797 -24.37329711 63.74631797 -23.3984375 70.2890625 C-22.67388706 74.83749177 -21.57081406 77.22459838 -18.0390625 80.36328125 C-17.26820313 81.07613281 -16.49734375 81.78898438 -15.703125 82.5234375 C-12.22839301 85.22139493 -10.3680539 86.30078125 -5.9140625 86.30078125 C-2.26655489 85.58576299 -2.26655489 85.58576299 -0.0390625 82.73828125 C1.86687728 78.70648555 2.28087213 75.72422907 2.5859375 71.30078125 C5.77467299 70.94647731 7.20182941 71.04124876 9.8984375 72.86328125 C12.31169499 76.34909763 12.19572295 78.10003705 11.5859375 82.30078125 C9.47739595 88.5195213 6.75716449 93.40592228 0.81640625 96.515625 C-4.48340704 98.38123353 -9.02589569 98.38477186 -14.16796875 96.05078125 C-17.99810379 93.82071718 -21.37993705 91.54953936 -24.4140625 88.30078125 C-28.12915513 89.53914546 -29.70289114 91.52183061 -32.4140625 94.30078125 C-36.45653875 96.99576541 -39.6655652 96.96638258 -44.4140625 96.30078125 C-48.3882483 94.24009231 -51.07720099 92.10652715 -53.4140625 88.30078125 C-54.18672889 83.67766068 -54.47277876 78.63086191 -52.5 74.2890625 C-49.79265311 70.82191181 -46.4981824 68.77106441 -42.4140625 67.30078125 C-40.08115144 67.25639182 -37.74686787 67.25114709 -35.4140625 67.30078125 C-38.85706889 57.48181129 -38.85706889 57.48181129 -42.6640625 47.80078125 C-46.7102237 37.71800858 -46.80828057 26.91343584 -42.67578125 16.8359375 C-38.77514444 8.99843505 -32.11211316 0.96223127 -23.69140625 -2.2265625 C-16.09226428 -3.80374291 -6.76910488 -4.30089415 0 0 Z " fill="#F8BDBF" transform="translate(402.4140625,758.69921875)"/>
<path d="M0 0 C6.48308455 -0.36696705 6.48308455 -0.36696705 8.70344543 1.20930481 C10.38996098 3.53858223 10.39556745 4.9751475 10.43237305 7.83862305 C10.46206429 9.30980843 10.46206429 9.30980843 10.49235535 10.81071472 C10.49874527 11.86704605 10.50513519 12.92337738 10.51171875 14.01171875 C10.52966995 15.09508011 10.54762115 16.17844147 10.56611633 17.29463196 C10.62034985 20.75888157 10.65415744 24.22299238 10.6875 27.6875 C10.72066149 30.03452458 10.75515004 32.38153081 10.79101562 34.72851562 C10.87608374 40.48555262 10.94437832 46.2426073 11 52 C12.29404401 49.956872 13.58056916 47.90960129 14.86328125 45.859375 C15.22651489 45.28751465 15.58974854 44.7156543 15.96398926 44.12646484 C18.6323767 39.84368022 20.46573874 35.64300525 21.91796875 30.828125 C23 29 23 29 25.61328125 28.234375 C26.40089844 28.15703125 27.18851562 28.0796875 28 28 C30 31 30 31 29.875 34.125 C27.46020374 44.81909771 21.3062605 55.62413043 12.37646484 62.19458008 C10.23146532 65.00803724 10.64862874 67.52523229 10.6640625 71.01171875 C10.65153981 72.42383263 10.63850225 73.83594202 10.625 75.24804688 C10.62108799 77.46199797 10.62492015 79.67549716 10.63964844 81.8894043 C10.70462158 97.99732797 10.70462158 97.99732797 5 104 C2.0507634 106.48356766 0.39536933 106.94968027 -3.4375 107.4375 C-7.81182302 106.90030244 -9.70606896 105.92793871 -13 103 C-16.30579912 98.46604021 -17.6879615 93.94565312 -17.37109375 88.34765625 C-15.83428993 78.62534996 -10.13091538 70.53036667 -2.234375 64.6953125 C-0.18018351 61.8740495 -0.69070324 58.65722636 -0.8125 55.3125 C-0.82603516 54.61060547 -0.83957031 53.90871094 -0.85351562 53.18554688 C-0.88879818 51.45670171 -0.94260417 49.72825235 -1 48 C-1.78761719 48.79792969 -2.57523437 49.59585938 -3.38671875 50.41796875 C-7.03924693 54.02681946 -8.70015785 54.8295289 -13.8125 55.5 C-18.11817122 55.38732823 -20.39389913 53.67699099 -23.5546875 50.8984375 C-27.65992311 45.50615505 -27.38507367 39.15983241 -27.375 32.6875 C-27.37483887 31.72287842 -27.37467773 30.75825684 -27.37451172 29.7644043 C-27.22605989 20.29239621 -26.38231266 9.07346899 -21 1 C-18.8359375 0.70703125 -18.8359375 0.70703125 -16.375 0.8125 C-15.55773437 0.83957031 -14.74046875 0.86664062 -13.8984375 0.89453125 C-12.95871094 0.94673828 -12.95871094 0.94673828 -12 1 C-12.4639139 4.71131117 -13.0279282 8.26237493 -14 11.875 C-15.85523495 19.17133445 -16.11051085 26.3905548 -16.1875 33.875 C-16.20055176 34.62515381 -16.21360352 35.37530762 -16.22705078 36.14819336 C-16.23311364 39.97342638 -16.17239482 41.74140777 -14 45 C-11.13128132 45.91828794 -11.13128132 45.91828794 -8 45 C-2.54591078 38.98118219 -0.78249884 31.56078671 -0.5859375 23.6328125 C-0.56657135 22.95322479 -0.5472052 22.27363708 -0.5272522 21.57345581 C-0.46794901 19.42409421 -0.42127109 17.27467759 -0.375 15.125 C-0.33677468 13.6588321 -0.29772036 12.19268557 -0.2578125 10.7265625 C-0.16228956 7.15123836 -0.07807874 3.57575252 0 0 Z " fill="#F9BFC0" transform="translate(286,800)"/>
<path d="M0 0 C1.63345814 1.28371143 1.63345814 1.28371143 3 3 C3.28082304 6.05867042 3.37856838 8.91137553 3.34057617 11.96948242 C3.34123329 13.34539299 3.34123329 13.34539299 3.34190369 14.74909973 C3.33981158 17.78477166 3.31646051 20.81989315 3.29296875 23.85546875 C3.2873743 25.95868122 3.28310349 28.06189759 3.28010559 30.16511536 C3.26864497 35.70379407 3.23916719 41.2422372 3.20599365 46.78082275 C3.17531907 52.43132337 3.16160584 58.08186201 3.14648438 63.73242188 C3.11429876 74.82171816 3.0630876 85.9108395 3 97 C-3.625 98.25 -3.625 98.25 -7 96 C-7.28624875 93.21863025 -7.37823168 90.66081207 -7.34057617 87.87841797 C-7.34123329 86.61976929 -7.34123329 86.61976929 -7.34190369 85.33569336 C-7.3398089 82.55429035 -7.31644563 79.77348557 -7.29296875 76.9921875 C-7.28737524 75.06690805 -7.28310399 73.14162435 -7.28010559 71.21633911 C-7.26863749 66.14288597 -7.23915346 61.06968946 -7.20599365 55.99633789 C-7.17533505 50.82181267 -7.16160927 45.64724607 -7.14648438 40.47265625 C-7.11428561 30.31499125 -7.06306559 20.15751695 -7 10 C-8.58847795 10.6027217 -10.17381345 11.21372883 -11.7578125 11.828125 C-12.64098145 12.1674707 -13.52415039 12.50681641 -14.43408203 12.85644531 C-20.6838768 15.64179628 -24.26796364 19.68141809 -27.18408203 25.77050781 C-28.5535314 29.51252207 -28.58082943 33.05282943 -28.5 37 C-28.51546875 37.75539063 -28.5309375 38.51078125 -28.546875 39.2890625 C-28.50976451 44.68863935 -27.49097587 49.71686215 -24 54 C-21.93574656 54.76251519 -21.93574656 54.76251519 -20 55 C-20.60220994 61.38342541 -20.60220994 61.38342541 -22.25 63.9375 C-24.66637282 65.4045835 -26.20686548 65.29225623 -29 65 C-35.17155293 60.52209569 -38.57989086 53.30221801 -40 46 C-40.97384427 36.37449765 -41.50491258 26.35294027 -36 18 C-35.4225 16.96875 -34.845 15.9375 -34.25 14.875 C-26.02046394 4.3594817 -13.69177196 -2.57122478 0 0 Z " fill="#FABFC0" transform="translate(798,757)"/>
<path d="M0 0 C6.17025455 2.81836815 10.66436486 7.18419846 13.703125 13.26171875 C14.1015625 16.6015625 14.1015625 16.6015625 14.078125 20.19921875 C14.08972656 21.97619141 14.08972656 21.97619141 14.1015625 23.7890625 C13.37653505 30.10817431 10.49341228 34.21658727 5.703125 38.26171875 C0.59217315 41.83589237 -4.25754213 43.01968303 -10.48046875 42.77734375 C-16.64040857 41.64958778 -22.25689802 38.24468031 -25.859375 33.07421875 C-29.29003123 26.36206525 -29.75617607 18.00444722 -27.53125 10.7734375 C-22.02906706 0.79588745 -10.71626652 -3.44451424 0 0 Z " fill="#0B1346" transform="translate(607.296875,466.73828125)"/>
<path d="M0 0 C8.88453481 4.44226741 12.84191581 16.06713328 16 25 C16.66 29.62 17.32 34.24 18 39 C5.79 39 -6.42 39 -19 39 C-19.99 35.7 -20.98 32.4 -22 29 C-22.66 27.35 -23.32 25.7 -24 24 C-16.08 16.08 -8.16 8.16 0 0 Z " fill="#0A1346" transform="translate(647,445)"/>
<path d="M0 0 C3.86328627 1.5847358 6.28876923 4.05956887 9.203125 7.0078125 C9.6857782 7.49329559 10.1684314 7.97877869 10.66571045 8.47897339 C12.19858562 10.02299866 13.72434004 11.57384824 15.25 13.125 C16.29120361 14.17624009 17.33286541 15.22702657 18.375 16.27734375 C20.92199464 18.84633004 23.46265177 21.42148161 26 24 C25.731875 24.61875 25.46375 25.2375 25.1875 25.875 C23.5562429 30.16778184 22.31958007 34.60139975 21 39 C9.12 39 -2.76 39 -15 39 C-15 24.03846586 -10.22704105 11.12942703 0 0 Z " fill="#091245" transform="translate(551,445)"/>
<path d="M0 0 C11.88 0 23.76 0 36 0 C36 14.84253792 31.11929574 27.98782522 21 39 C17.13671373 37.4152642 14.71123077 34.94043113 11.796875 31.9921875 C11.3142218 31.50670441 10.8315686 31.02122131 10.33428955 30.52102661 C8.80141438 28.97700134 7.27565996 27.42615176 5.75 25.875 C4.70879639 24.82375991 3.66713459 23.77297343 2.625 22.72265625 C0.07800536 20.15366996 -2.46265177 17.57851839 -5 15 C-4.731875 14.38125 -4.46375 13.7625 -4.1875 13.125 C-2.5562429 8.83221816 -1.31958007 4.39860025 0 0 Z " fill="#091245" transform="translate(628,491)"/>
<path d="M0 0 C11.88 0 23.76 0 36 0 C36.99 3.3 37.98 6.6 39 10 C39.66 11.65 40.32 13.3 41 15 C33.08 22.92 25.16 30.84 17 39 C8.16236674 34.58118337 4.10993058 22.96996506 1 14 C-0.35420344 9.10146163 0 5.45951191 0 0 Z " fill="#091245" transform="translate(536,491)"/>
<path d="M0 0 C2.64 1.32 5.28 2.64 8 4 C9.98 4.66 11.96 5.32 14 6 C14 17.88 14 29.76 14 42 C0.89782915 42 -10.38896025 37.51731972 -21 30 C-22.32 28.35 -23.64 26.7 -25 25 C-16.75 16.75 -8.5 8.5 0 0 Z " fill="#091245" transform="translate(582,510)"/>
<path d="M0 0 C0 11.88 0 23.76 0 36 C-12 41 -12 41 -15 41 C-16.95924864 39.30307518 -18.74335114 37.60430994 -20.54296875 35.75 C-21.07142899 35.21729492 -21.59988922 34.68458984 -22.1443634 34.13574219 C-23.83256735 32.43072971 -25.51005145 30.71558873 -27.1875 29 C-28.32938778 27.84306822 -29.47195776 26.68680935 -30.61523438 25.53125 C-33.41813541 22.69525089 -36.2114652 19.85012324 -39 17 C-30.07629402 5.35260706 -14.25872651 0 0 0 Z " fill="#091245" transform="translate(596,423)"/>
<path d="M0 0 C5.99500997 4.96194855 11.46427037 10.3476624 16.9375 15.875 C17.81212891 16.75414062 18.68675781 17.63328125 19.58789062 18.5390625 C21.72757048 20.6904346 23.86486597 22.84411792 26 25 C19.03231448 33.93843595 8.84278943 38.19139304 -2 41 C-7.445 41.495 -7.445 41.495 -13 42 C-13 30.12 -13 18.24 -13 6 C-9.04 4.35 -5.08 2.7 -1 1 C-0.67 0.67 -0.34 0.34 0 0 Z " fill="#081145" transform="translate(617,510)"/>
<path d="M0 0 C12.87834961 1.17075906 12.87834961 1.17075906 19.0625 3.625 C19.74006348 3.88643799 20.41762695 4.14787598 21.11572266 4.41723633 C28.00935612 7.20142448 34.80035235 10.70052853 39 17 C30.75 25.25 22.5 33.5 14 42 C9.38 40.02 4.76 38.04 0 36 C0 24.12 0 12.24 0 0 Z " fill="#081145" transform="translate(604,423)"/>
<path d="M0 0 C3.08559844 1.12887748 4.51692819 2.38053523 6.5625 4.9375 C9.78031434 13.74414979 8.35918773 26.61399228 4.5625 34.9375 C2.27444223 37.22555777 1.22974344 37.39332599 -1.875 38 C-4.49887121 38.52304517 -6.89029021 39.08843007 -9.4375 39.9375 C-9.53685088 35.63254985 -9.60919268 31.32821817 -9.65722656 27.02246094 C-9.67726332 25.55977748 -9.70450104 24.09717334 -9.73925781 22.63476562 C-9.78813225 20.5245399 -9.81054659 18.41537864 -9.828125 16.3046875 C-9.84907227 15.03737793 -9.87001953 13.77006836 -9.89160156 12.46435547 C-9.35723559 8.31411305 -7.97926215 6.21174633 -5.4375 2.9375 C-4.963125 2.298125 -4.48875 1.65875 -4 1 C-2.4375 -0.0625 -2.4375 -0.0625 0 0 Z " fill="#0B1346" transform="translate(555.4375,807.0625)"/>
<path d="M0 0 C0.14873164 4.60801142 0.257388 9.21461592 0.32958984 13.82446289 C0.35969601 15.39111679 0.4005923 16.95760303 0.45263672 18.52368164 C0.52573887 20.78053143 0.55951301 23.03514796 0.5859375 25.29296875 C0.61690521 25.98899704 0.64787292 26.68502533 0.67977905 27.40214539 C0.6816898 30.18616815 0.51815007 32.35833988 -1.26580811 34.5675354 C-3.82645091 36.80245587 -5.78174361 37.95634872 -9.125 38.625 C-12 38 -12 38 -14.3125 35.6875 C-18.12234707 29.61996578 -17.53356453 22.94374955 -17 16 C-15.79087972 10.94666579 -14.18908198 7.18908198 -10.5 3.5 C-9.675 3.005 -8.85 2.51 -8 2 C-7.319375 1.5875 -6.63875 1.175 -5.9375 0.75 C-4 0 -4 0 0 0 Z " fill="#0F1648" transform="translate(845,808)"/>
<path d="M0 0 C3.82683864 1.91341932 4.64684603 7.14351119 6 11 C10.81928078 26.49356496 14.08813518 49.65223287 6.61328125 64.8125 C5.81470703 65.8953125 5.81470703 65.8953125 5 67 C4.01 67 3.02 67 2 67 C0.17499618 63.0960127 -0.24454221 60.03511204 -0.22705078 55.7409668 C-0.22689972 54.50005783 -0.22674866 53.25914886 -0.22659302 51.9806366 C-0.21638143 50.63682899 -0.20594946 49.29302305 -0.1953125 47.94921875 C-0.19157931 46.5663117 -0.18873378 45.18340198 -0.18673706 43.80049133 C-0.17912462 40.1721966 -0.15949691 36.54406363 -0.1373291 32.91583252 C-0.11681899 29.20888456 -0.10772433 25.5019103 -0.09765625 21.79492188 C-0.07624855 14.52987441 -0.04214175 7.26495993 0 0 Z " fill="#12194A" transform="translate(692,830)"/>
<path d="M0 0 C3.02508145 1.73602105 5.41790069 3.83580137 7 7 C7.59968751 12.27725011 6.27164725 14.88707202 3 19 C-0.6921187 21.46141247 -3.71354805 21.68650207 -8 21 C-11.4431146 18.90419111 -13.7468218 16.8734599 -15 13 C-15.45972376 9.97895814 -15.60025379 7.96174492 -13.94921875 5.31640625 C-9.87727285 0.30755244 -6.41405481 -1.09479229 0 0 Z " fill="#F8BEBF" transform="translate(604,477)"/>
<path d="M0 0 C3.60411654 1.44633744 5.11402568 3.19136668 7.1875 6.4375 C7.69667969 7.21996094 8.20585938 8.00242187 8.73046875 8.80859375 C11.12407699 12.94032983 11.24345495 16.2932043 11 21 C10 23.9375 10 23.9375 9 26 C1.10081715 26.91144418 -4.20536627 23.80499489 -11 20 C-10.505 18.515 -10.505 18.515 -10 17 C-8.35 17.33 -6.7 17.66 -5 18 C-4.70996094 16.80503906 -4.70996094 16.80503906 -4.4140625 15.5859375 C-1.82776801 5.06151142 -1.82776801 5.06151142 0 0 Z " fill="#111849" transform="translate(987,817)"/>
<path d="M0 0 C0.61746094 0.19207031 1.23492188 0.38414062 1.87109375 0.58203125 C2.38189581 7.50623695 1.99813147 12.82275675 -2.12890625 18.58203125 C-6.32890625 22.58203125 -6.32890625 22.58203125 -9.12890625 22.58203125 C-9.50757223 14.7562677 -8.89709002 7.42177002 -4.19140625 0.89453125 C-2.12890625 -0.41796875 -2.12890625 -0.41796875 0 0 Z " fill="#151B4B" transform="translate(893.12890625,807.41796875)"/>
<path d="M0 0 C0.33 0 0.66 0 1 0 C1.05802698 3.43742918 1.09360486 6.87473253 1.125 10.3125 C1.15013672 11.77719727 1.15013672 11.77719727 1.17578125 13.27148438 C1.18222656 14.20927734 1.18867188 15.14707031 1.1953125 16.11328125 C1.20578613 16.97735596 1.21625977 17.84143066 1.22705078 18.73168945 C1 21 1 21 -1 24 C-2.32 24 -3.64 24 -5 24 C-7.16485045 19.67029909 -6.65032287 13.45777196 -5.43359375 8.859375 C-4.07625695 5.59039633 -2.33751392 2.65626582 0 0 Z " fill="#0C1447" transform="translate(285,874)"/>
<path d="M0 0 C0.99 0.33 1.98 0.66 3 1 C3.92188461 3.76565382 4.11785222 5.38283702 4.09765625 8.23046875 C4.09443359 9.03291016 4.09121094 9.83535156 4.08789062 10.66210938 C4.07532227 11.91217773 4.07532227 11.91217773 4.0625 13.1875 C4.05798828 14.03248047 4.05347656 14.87746094 4.04882812 15.74804688 C4.03705403 17.83206155 4.0191189 19.91603977 4 22 C0.54153065 18.62676419 -0.8960701 16.54133329 -1.23046875 11.58203125 C-1.21628906 10.33808594 -1.20210938 9.09414063 -1.1875 7.8125 C-1.18105469 6.56082031 -1.17460937 5.30914063 -1.16796875 4.01953125 C-1 1 -1 1 0 0 Z " fill="#1C1F4F" transform="translate(450,810)"/>
<path d="M0 0 C3.0625 0.25 3.0625 0.25 6.0625 2.25 C5.3125 7 5.3125 7 3.0625 9.25 C0.0625 9.5 0.0625 9.5 -2.9375 9.25 C-4.9375 7.25 -4.9375 7.25 -5.1875 4.75 C-4.80794286 0.95442855 -3.73304166 0.31770567 0 0 Z " fill="#101749" transform="translate(362.9375,835.75)"/>
<path d="M0 0 C0.99 0 1.98 0 3 0 C4.17426264 2.34852528 4.11508173 3.73774065 4.09765625 6.3515625 C4.09443359 7.20234375 4.09121094 8.053125 4.08789062 8.9296875 C4.07951172 9.81914063 4.07113281 10.70859375 4.0625 11.625 C4.05798828 12.5221875 4.05347656 13.419375 4.04882812 14.34375 C4.03702591 16.56256648 4.02056155 18.78125018 4 21 C0.08444793 17.40627413 -0.85066594 13.5274789 -1.15625 8.35546875 C-1.18450747 5.8864727 -1.2027348 3.46110612 -1 1 C-0.67 0.67 -0.34 0.34 0 0 Z " fill="#161B4C" transform="translate(651,810)"/>
<path d="M0 0 C1.32 0.66 2.64 1.32 4 2 C4 8.27 4 14.54 4 21 C-0.63021959 16.36978041 -1.11522734 11.93982377 -1.1875 5.625 C-1.15372907 1.15372907 -1.15372907 1.15372907 0 0 Z " fill="#11184A" transform="translate(505,810)"/>
</svg>
